<svg xmlns="http://www.w3.org/2000/svg" version="1.1" xmlns:xlink="http://www.w3.org/1999/xlink" xmlns:svgjs="http://svgjs.com/svgjs" width="500" height="500" preserveAspectRatio="none" viewBox="0 0 500 500"><g mask="url(&quot;#SvgjsMask1028&quot;)" fill="none"><rect width="500" height="500" x="0" y="0" fill="#0e2a47"></rect><g mask="url(&quot;#SvgjsMask1029&quot;)"><path d="M312.5 12.5L12.5 312.5L12.5 487.5" stroke-width="4.17" stroke="rgba(195, 104, 58, 1)"></path><path d="M306.25 12.5 a6.25 6.25 0 1 0 12.5 0 a6.25 6.25 0 1 0 -12.5 0zM6.25 487.5 a6.25 6.25 0 1 0 12.5 0 a6.25 6.25 0 1 0 -12.5 0z" fill="rgba(195, 104, 58, 1)"></path><path d="M137.5 437.5L137.5 487.5" stroke-width="4.17" stroke="rgba(195, 104, 58, 1)"></path><path d="M131.25 437.5 a6.25 6.25 0 1 0 12.5 0 a6.25 6.25 0 1 0 -12.5 0zM131.25 487.5 a6.25 6.25 0 1 0 12.5 0 a6.25 6.25 0 1 0 -12.5 0z" fill="rgba(195, 104, 58, 1)"></path><path d="M262.5 137.5L262.5 87.5L337.5 12.5L487.5 12.5" stroke-width="4.17" stroke="rgba(195, 104, 58, 1)"></path><path d="M256.25 137.5 a6.25 6.25 0 1 0 12.5 0 a6.25 6.25 0 1 0 -12.5 0zM481.25 12.5 a6.25 6.25 0 1 0 12.5 0 a6.25 6.25 0 1 0 -12.5 0z" fill="rgba(195, 104, 58, 1)"></path><path d="M62.5 212.5L62.5 187.5L12.5 137.5L12.5 12.5" stroke-width="4.17" stroke="rgba(195, 104, 58, 1)"></path><path d="M56.25 212.5 a6.25 6.25 0 1 0 12.5 0 a6.25 6.25 0 1 0 -12.5 0zM6.25 12.5 a6.25 6.25 0 1 0 12.5 0 a6.25 6.25 0 1 0 -12.5 0z" fill="rgba(195, 104, 58, 1)"></path><path d="M237.5 437.5L87.5 287.5L87.5 262.5L237.5 112.5" stroke-width="4.17" stroke="rgba(195, 104, 58, 1)"></path><path d="M231.25 437.5 a6.25 6.25 0 1 0 12.5 0 a6.25 6.25 0 1 0 -12.5 0zM231.25 112.5 a6.25 6.25 0 1 0 12.5 0 a6.25 6.25 0 1 0 -12.5 0z" fill="rgba(195, 104, 58, 1)"></path><path d="M187.5 262.5L112.5 262.5" stroke-width="4.17" stroke="rgba(195, 104, 58, 1)"></path><path d="M181.25 262.5 a6.25 6.25 0 1 0 12.5 0 a6.25 6.25 0 1 0 -12.5 0zM106.25 262.5 a6.25 6.25 0 1 0 12.5 0 a6.25 6.25 0 1 0 -12.5 0z" fill="rgba(195, 104, 58, 1)"></path><path d="M162.5 312.5L487.5 312.5" stroke-width="4.17" stroke="rgba(195, 104, 58, 1)"></path><path d="M156.25 312.5 a6.25 6.25 0 1 0 12.5 0 a6.25 6.25 0 1 0 -12.5 0zM481.25 312.5 a6.25 6.25 0 1 0 12.5 0 a6.25 6.25 0 1 0 -12.5 0z" fill="rgba(195, 104, 58, 1)"></path><path d="M162.5 337.5L187.5 337.5L337.5 487.5L437.5 487.5L462.5 462.5L487.5 462.5" stroke-width="4.17" stroke="rgba(195, 104, 58, 1)"></path><path d="M156.25 337.5 a6.25 6.25 0 1 0 12.5 0 a6.25 6.25 0 1 0 -12.5 0zM481.25 462.5 a6.25 6.25 0 1 0 12.5 0 a6.25 6.25 0 1 0 -12.5 0z" fill="rgba(195, 104, 58, 1)"></path><path d="M212.5 12.5L212.5 37.5L162.5 87.5L37.5 87.5" stroke-width="4.17" stroke="rgba(195, 104, 58, 1)"></path><path d="M206.25 12.5 a6.25 6.25 0 1 0 12.5 0 a6.25 6.25 0 1 0 -12.5 0zM31.25 87.5 a6.25 6.25 0 1 0 12.5 0 a6.25 6.25 0 1 0 -12.5 0z" fill="rgba(195, 104, 58, 1)"></path><path d="M437.5 362.5L337.5 462.5" stroke-width="4.17" stroke="rgba(195, 104, 58, 1)"></path><path d="M431.25 362.5 a6.25 6.25 0 1 0 12.5 0 a6.25 6.25 0 1 0 -12.5 0zM331.25 462.5 a6.25 6.25 0 1 0 12.5 0 a6.25 6.25 0 1 0 -12.5 0z" fill="rgba(195, 104, 58, 1)"></path><path d="M37.5 237.5L12.5 262.5L12.5 287.5" stroke-width="4.17" stroke="rgba(195, 104, 58, 1)"></path><path d="M31.25 237.5 a6.25 6.25 0 1 0 12.5 0 a6.25 6.25 0 1 0 -12.5 0zM6.25 287.5 a6.25 6.25 0 1 0 12.5 0 a6.25 6.25 0 1 0 -12.5 0z" fill="rgba(195, 104, 58, 1)"></path><path d="M487.5 337.5L212.5 337.5" stroke-width="4.17" stroke="rgba(195, 104, 58, 1)"></path><path d="M481.25 337.5 a6.25 6.25 0 1 0 12.5 0 a6.25 6.25 0 1 0 -12.5 0zM206.25 337.5 a6.25 6.25 0 1 0 12.5 0 a6.25 6.25 0 1 0 -12.5 0z" fill="rgba(195, 104, 58, 1)"></path><path d="M412.5 287.5L387.5 287.5L237.5 137.5" stroke-width="4.17" stroke="rgba(195, 104, 58, 1)"></path><path d="M406.25 287.5 a6.25 6.25 0 1 0 12.5 0 a6.25 6.25 0 1 0 -12.5 0zM231.25 137.5 a6.25 6.25 0 1 0 12.5 0 a6.25 6.25 0 1 0 -12.5 0z" fill="rgba(195, 104, 58, 1)"></path><path d="M37.5 462.5L37.5 312.5L62.5 287.5" stroke-width="4.17" stroke="rgba(195, 104, 58, 1)"></path><path d="M31.25 462.5 a6.25 6.25 0 1 0 12.5 0 a6.25 6.25 0 1 0 -12.5 0zM56.25 287.5 a6.25 6.25 0 1 0 12.5 0 a6.25 6.25 0 1 0 -12.5 0z" fill="rgba(195, 104, 58, 1)"></path><path d="M212.5 237.5L312.5 237.5L362.5 287.5" stroke-width="4.17" stroke="rgba(195, 104, 58, 1)"></path><path d="M206.25 237.5 a6.25 6.25 0 1 0 12.5 0 a6.25 6.25 0 1 0 -12.5 0zM356.25 287.5 a6.25 6.25 0 1 0 12.5 0 a6.25 6.25 0 1 0 -12.5 0z" fill="rgba(195, 104, 58, 1)"></path><path d="M487.5 212.5L412.5 212.5L387.5 237.5L362.5 237.5L287.5 162.5L287.5 87.5L312.5 62.5L362.5 62.5L412.5 112.5L412.5 187.5" stroke-width="4.17" stroke="rgba(195, 104, 58, 1)"></path><path d="M481.25 212.5 a6.25 6.25 0 1 0 12.5 0 a6.25 6.25 0 1 0 -12.5 0zM406.25 187.5 a6.25 6.25 0 1 0 12.5 0 a6.25 6.25 0 1 0 -12.5 0z" fill="rgba(195, 104, 58, 1)"></path><path d="M137.5 387.5L162.5 387.5L262.5 487.5L312.5 487.5" stroke-width="4.17" stroke="rgba(195, 104, 58, 1)"></path><path d="M131.25 387.5 a6.25 6.25 0 1 0 12.5 0 a6.25 6.25 0 1 0 -12.5 0zM306.25 487.5 a6.25 6.25 0 1 0 12.5 0 a6.25 6.25 0 1 0 -12.5 0z" fill="rgba(195, 104, 58, 1)"></path><path d="M187.5 87.5L212.5 87.5L262.5 37.5L262.5 12.5" stroke-width="4.17" stroke="rgba(195, 104, 58, 1)"></path><path d="M181.25 87.5 a6.25 6.25 0 1 0 12.5 0 a6.25 6.25 0 1 0 -12.5 0zM256.25 12.5 a6.25 6.25 0 1 0 12.5 0 a6.25 6.25 0 1 0 -12.5 0z" fill="rgba(195, 104, 58, 1)"></path><path d="M462.5 187.5L462.5 62.5L437.5 37.5L337.5 37.5" stroke-width="4.17" stroke="rgba(195, 104, 58, 1)"></path><path d="M456.25 187.5 a6.25 6.25 0 1 0 12.5 0 a6.25 6.25 0 1 0 -12.5 0zM331.25 37.5 a6.25 6.25 0 1 0 12.5 0 a6.25 6.25 0 1 0 -12.5 0z" fill="rgba(195, 104, 58, 1)"></path><path d="M237.5 287.5L337.5 287.5" stroke-width="4.17" stroke="rgba(195, 104, 58, 1)"></path><path d="M231.25 287.5 a6.25 6.25 0 1 0 12.5 0 a6.25 6.25 0 1 0 -12.5 0zM331.25 287.5 a6.25 6.25 0 1 0 12.5 0 a6.25 6.25 0 1 0 -12.5 0z" fill="rgba(195, 104, 58, 1)"></path><path d="M137.5 162.5L137.5 112.5" stroke-width="4.17" stroke="rgba(195, 104, 58, 1)"></path><path d="M131.25 162.5 a6.25 6.25 0 1 0 12.5 0 a6.25 6.25 0 1 0 -12.5 0zM131.25 112.5 a6.25 6.25 0 1 0 12.5 0 a6.25 6.25 0 1 0 -12.5 0z" fill="rgba(195, 104, 58, 1)"></path><path d="M87.5 12.5L37.5 62.5" stroke-width="4.17" stroke="rgba(195, 104, 58, 1)"></path><path d="M81.25 12.5 a6.25 6.25 0 1 0 12.5 0 a6.25 6.25 0 1 0 -12.5 0zM31.25 62.5 a6.25 6.25 0 1 0 12.5 0 a6.25 6.25 0 1 0 -12.5 0z" fill="rgba(195, 104, 58, 1)"></path><path d="M62.5 462.5L62.5 312.5" stroke-width="4.17" stroke="rgba(195, 104, 58, 1)"></path><path d="M56.25 462.5 a6.25 6.25 0 1 0 12.5 0 a6.25 6.25 0 1 0 -12.5 0zM56.25 312.5 a6.25 6.25 0 1 0 12.5 0 a6.25 6.25 0 1 0 -12.5 0z" fill="rgba(195, 104, 58, 1)"></path><path d="M387.5 387.5L262.5 387.5L237.5 362.5" stroke-width="4.17" stroke="rgba(195, 104, 58, 1)"></path><path d="M381.25 387.5 a6.25 6.25 0 1 0 12.5 0 a6.25 6.25 0 1 0 -12.5 0zM231.25 362.5 a6.25 6.25 0 1 0 12.5 0 a6.25 6.25 0 1 0 -12.5 0z" fill="rgba(195, 104, 58, 1)"></path><path d="M387.5 162.5L312.5 162.5" stroke-width="4.17" stroke="rgba(195, 104, 58, 1)"></path><path d="M381.25 162.5 a6.25 6.25 0 1 0 12.5 0 a6.25 6.25 0 1 0 -12.5 0zM306.25 162.5 a6.25 6.25 0 1 0 12.5 0 a6.25 6.25 0 1 0 -12.5 0z" fill="rgba(195, 104, 58, 1)"></path><path d="M262.5 262.5L312.5 262.5" stroke-width="4.17" stroke="rgba(195, 104, 58, 1)"></path><path d="M256.25 262.5 a6.25 6.25 0 1 0 12.5 0 a6.25 6.25 0 1 0 -12.5 0zM306.25 262.5 a6.25 6.25 0 1 0 12.5 0 a6.25 6.25 0 1 0 -12.5 0z" fill="rgba(195, 104, 58, 1)"></path><path d="M487.5 287.5L437.5 237.5L412.5 237.5L387.5 262.5" stroke-width="4.17" stroke="rgba(195, 104, 58, 1)"></path><path d="M481.25 287.5 a6.25 6.25 0 1 0 12.5 0 a6.25 6.25 0 1 0 -12.5 0zM381.25 262.5 a6.25 6.25 0 1 0 12.5 0 a6.25 6.25 0 1 0 -12.5 0z" fill="rgba(195, 104, 58, 1)"></path><path d="M37.5 487.5L112.5 487.5" stroke-width="4.17" stroke="rgba(195, 104, 58, 1)"></path><path d="M31.25 487.5 a6.25 6.25 0 1 0 12.5 0 a6.25 6.25 0 1 0 -12.5 0zM106.25 487.5 a6.25 6.25 0 1 0 12.5 0 a6.25 6.25 0 1 0 -12.5 0z" fill="rgba(195, 104, 58, 1)"></path><path d="M87.5 437.5L87.5 337.5" stroke-width="4.17" stroke="rgba(195, 104, 58, 1)"></path><path d="M81.25 437.5 a6.25 6.25 0 1 0 12.5 0 a6.25 6.25 0 1 0 -12.5 0zM81.25 337.5 a6.25 6.25 0 1 0 12.5 0 a6.25 6.25 0 1 0 -12.5 0z" fill="rgba(195, 104, 58, 1)"></path><path d="M487.5 112.5L487.5 37.5" stroke-width="4.17" stroke="rgba(195, 104, 58, 1)"></path><path d="M481.25 112.5 a6.25 6.25 0 1 0 12.5 0 a6.25 6.25 0 1 0 -12.5 0zM481.25 37.5 a6.25 6.25 0 1 0 12.5 0 a6.25 6.25 0 1 0 -12.5 0z" fill="rgba(195, 104, 58, 1)"></path><path d="M212.5 462.5L162.5 412.5L112.5 412.5" stroke-width="4.17" stroke="rgba(195, 104, 58, 1)"></path><path d="M206.25 462.5 a6.25 6.25 0 1 0 12.5 0 a6.25 6.25 0 1 0 -12.5 0zM106.25 412.5 a6.25 6.25 0 1 0 12.5 0 a6.25 6.25 0 1 0 -12.5 0z" fill="rgba(195, 104, 58, 1)"></path><path d="M287.5 362.5L412.5 362.5" stroke-width="4.17" stroke="rgba(195, 104, 58, 1)"></path><path d="M281.25 362.5 a6.25 6.25 0 1 0 12.5 0 a6.25 6.25 0 1 0 -12.5 0zM406.25 362.5 a6.25 6.25 0 1 0 12.5 0 a6.25 6.25 0 1 0 -12.5 0z" fill="rgba(195, 104, 58, 1)"></path><path d="M162.5 12.5L112.5 12.5L62.5 62.5" stroke-width="4.17" stroke="rgba(195, 104, 58, 1)"></path><path d="M156.25 12.5 a6.25 6.25 0 1 0 12.5 0 a6.25 6.25 0 1 0 -12.5 0zM56.25 62.5 a6.25 6.25 0 1 0 12.5 0 a6.25 6.25 0 1 0 -12.5 0z" fill="rgba(195, 104, 58, 1)"></path><path d="M12.5 212.5L12.5 162.5" stroke-width="4.17" stroke="rgba(195, 104, 58, 1)"></path><path d="M6.25 212.5 a6.25 6.25 0 1 0 12.5 0 a6.25 6.25 0 1 0 -12.5 0zM6.25 162.5 a6.25 6.25 0 1 0 12.5 0 a6.25 6.25 0 1 0 -12.5 0z" fill="rgba(195, 104, 58, 1)"></path><path d="M187.5 187.5L212.5 187.5L237.5 212.5L287.5 212.5" stroke-width="4.17" stroke="rgba(195, 104, 58, 1)"></path><path d="M181.25 187.5 a6.25 6.25 0 1 0 12.5 0 a6.25 6.25 0 1 0 -12.5 0zM281.25 212.5 a6.25 6.25 0 1 0 12.5 0 a6.25 6.25 0 1 0 -12.5 0z" fill="rgba(195, 104, 58, 1)"></path><path d="M237.5 262.5L212.5 262.5L187.5 287.5" stroke-width="4.17" stroke="rgba(195, 104, 58, 1)"></path><path d="M231.25 262.5 a6.25 6.25 0 1 0 12.5 0 a6.25 6.25 0 1 0 -12.5 0zM181.25 287.5 a6.25 6.25 0 1 0 12.5 0 a6.25 6.25 0 1 0 -12.5 0z" fill="rgba(195, 104, 58, 1)"></path><path d="M487.5 412.5L412.5 412.5" stroke-width="4.17" stroke="rgba(195, 104, 58, 1)"></path><path d="M481.25 412.5 a6.25 6.25 0 1 0 12.5 0 a6.25 6.25 0 1 0 -12.5 0zM406.25 412.5 a6.25 6.25 0 1 0 12.5 0 a6.25 6.25 0 1 0 -12.5 0z" fill="rgba(195, 104, 58, 1)"></path></g></g><defs><mask id="SvgjsMask1028"><rect width="500" height="500" fill="#ffffff"></rect></mask><mask id="SvgjsMask1029"><rect width="500" height="500" fill="white"></rect><path d="M309.37 12.5 a3.13 3.13 0 1 0 6.26 0 a3.13 3.13 0 1 0 -6.26 0zM9.37 487.5 a3.13 3.13 0 1 0 6.26 0 a3.13 3.13 0 1 0 -6.26 0z" fill="black"></path><path d="M134.37 437.5 a3.13 3.13 0 1 0 6.26 0 a3.13 3.13 0 1 0 -6.26 0zM134.37 487.5 a3.13 3.13 0 1 0 6.26 0 a3.13 3.13 0 1 0 -6.26 0z" fill="black"></path><path d="M259.37 137.5 a3.13 3.13 0 1 0 6.26 0 a3.13 3.13 0 1 0 -6.26 0zM484.37 12.5 a3.13 3.13 0 1 0 6.26 0 a3.13 3.13 0 1 0 -6.26 0z" fill="black"></path><path d="M59.37 212.5 a3.13 3.13 0 1 0 6.26 0 a3.13 3.13 0 1 0 -6.26 0zM9.37 12.5 a3.13 3.13 0 1 0 6.26 0 a3.13 3.13 0 1 0 -6.26 0z" fill="black"></path><path d="M234.37 437.5 a3.13 3.13 0 1 0 6.26 0 a3.13 3.13 0 1 0 -6.26 0zM234.37 112.5 a3.13 3.13 0 1 0 6.26 0 a3.13 3.13 0 1 0 -6.26 0z" fill="black"></path><path d="M184.37 262.5 a3.13 3.13 0 1 0 6.26 0 a3.13 3.13 0 1 0 -6.26 0zM109.37 262.5 a3.13 3.13 0 1 0 6.26 0 a3.13 3.13 0 1 0 -6.26 0z" fill="black"></path><path d="M159.37 312.5 a3.13 3.13 0 1 0 6.26 0 a3.13 3.13 0 1 0 -6.26 0zM484.37 312.5 a3.13 3.13 0 1 0 6.26 0 a3.13 3.13 0 1 0 -6.26 0z" fill="black"></path><path d="M159.37 337.5 a3.13 3.13 0 1 0 6.26 0 a3.13 3.13 0 1 0 -6.26 0zM484.37 462.5 a3.13 3.13 0 1 0 6.26 0 a3.13 3.13 0 1 0 -6.26 0z" fill="black"></path><path d="M209.37 12.5 a3.13 3.13 0 1 0 6.26 0 a3.13 3.13 0 1 0 -6.26 0zM34.37 87.5 a3.13 3.13 0 1 0 6.26 0 a3.13 3.13 0 1 0 -6.26 0z" fill="black"></path><path d="M434.37 362.5 a3.13 3.13 0 1 0 6.26 0 a3.13 3.13 0 1 0 -6.26 0zM334.37 462.5 a3.13 3.13 0 1 0 6.26 0 a3.13 3.13 0 1 0 -6.26 0z" fill="black"></path><path d="M34.37 237.5 a3.13 3.13 0 1 0 6.26 0 a3.13 3.13 0 1 0 -6.26 0zM9.37 287.5 a3.13 3.13 0 1 0 6.26 0 a3.13 3.13 0 1 0 -6.26 0z" fill="black"></path><path d="M484.37 337.5 a3.13 3.13 0 1 0 6.26 0 a3.13 3.13 0 1 0 -6.26 0zM209.37 337.5 a3.13 3.13 0 1 0 6.26 0 a3.13 3.13 0 1 0 -6.26 0z" fill="black"></path><path d="M409.37 287.5 a3.13 3.13 0 1 0 6.26 0 a3.13 3.13 0 1 0 -6.26 0zM234.37 137.5 a3.13 3.13 0 1 0 6.26 0 a3.13 3.13 0 1 0 -6.26 0z" fill="black"></path><path d="M34.37 462.5 a3.13 3.13 0 1 0 6.26 0 a3.13 3.13 0 1 0 -6.26 0zM59.37 287.5 a3.13 3.13 0 1 0 6.26 0 a3.13 3.13 0 1 0 -6.26 0z" fill="black"></path><path d="M209.37 237.5 a3.13 3.13 0 1 0 6.26 0 a3.13 3.13 0 1 0 -6.26 0zM359.37 287.5 a3.13 3.13 0 1 0 6.26 0 a3.13 3.13 0 1 0 -6.26 0z" fill="black"></path><path d="M484.37 212.5 a3.13 3.13 0 1 0 6.26 0 a3.13 3.13 0 1 0 -6.26 0zM409.37 187.5 a3.13 3.13 0 1 0 6.26 0 a3.13 3.13 0 1 0 -6.26 0z" fill="black"></path><path d="M134.37 387.5 a3.13 3.13 0 1 0 6.26 0 a3.13 3.13 0 1 0 -6.26 0zM309.37 487.5 a3.13 3.13 0 1 0 6.26 0 a3.13 3.13 0 1 0 -6.26 0z" fill="black"></path><path d="M184.37 87.5 a3.13 3.13 0 1 0 6.26 0 a3.13 3.13 0 1 0 -6.26 0zM259.37 12.5 a3.13 3.13 0 1 0 6.26 0 a3.13 3.13 0 1 0 -6.26 0z" fill="black"></path><path d="M459.37 187.5 a3.13 3.13 0 1 0 6.26 0 a3.13 3.13 0 1 0 -6.26 0zM334.37 37.5 a3.13 3.13 0 1 0 6.26 0 a3.13 3.13 0 1 0 -6.26 0z" fill="black"></path><path d="M234.37 287.5 a3.13 3.13 0 1 0 6.26 0 a3.13 3.13 0 1 0 -6.26 0zM334.37 287.5 a3.13 3.13 0 1 0 6.26 0 a3.13 3.13 0 1 0 -6.26 0z" fill="black"></path><path d="M134.37 162.5 a3.13 3.13 0 1 0 6.26 0 a3.13 3.13 0 1 0 -6.26 0zM134.37 112.5 a3.13 3.13 0 1 0 6.26 0 a3.13 3.13 0 1 0 -6.26 0z" fill="black"></path><path d="M84.37 12.5 a3.13 3.13 0 1 0 6.26 0 a3.13 3.13 0 1 0 -6.26 0zM34.37 62.5 a3.13 3.13 0 1 0 6.26 0 a3.13 3.13 0 1 0 -6.26 0z" fill="black"></path><path d="M59.37 462.5 a3.13 3.13 0 1 0 6.26 0 a3.13 3.13 0 1 0 -6.26 0zM59.37 312.5 a3.13 3.13 0 1 0 6.26 0 a3.13 3.13 0 1 0 -6.26 0z" fill="black"></path><path d="M384.37 387.5 a3.13 3.13 0 1 0 6.26 0 a3.13 3.13 0 1 0 -6.26 0zM234.37 362.5 a3.13 3.13 0 1 0 6.26 0 a3.13 3.13 0 1 0 -6.26 0z" fill="black"></path><path d="M384.37 162.5 a3.13 3.13 0 1 0 6.26 0 a3.13 3.13 0 1 0 -6.26 0zM309.37 162.5 a3.13 3.13 0 1 0 6.26 0 a3.13 3.13 0 1 0 -6.26 0z" fill="black"></path><path d="M259.37 262.5 a3.13 3.13 0 1 0 6.26 0 a3.13 3.13 0 1 0 -6.26 0zM309.37 262.5 a3.13 3.13 0 1 0 6.26 0 a3.13 3.13 0 1 0 -6.26 0z" fill="black"></path><path d="M484.37 287.5 a3.13 3.13 0 1 0 6.26 0 a3.13 3.13 0 1 0 -6.26 0zM384.37 262.5 a3.13 3.13 0 1 0 6.26 0 a3.13 3.13 0 1 0 -6.26 0z" fill="black"></path><path d="M34.37 487.5 a3.13 3.13 0 1 0 6.26 0 a3.13 3.13 0 1 0 -6.26 0zM109.37 487.5 a3.13 3.13 0 1 0 6.26 0 a3.13 3.13 0 1 0 -6.26 0z" fill="black"></path><path d="M84.37 437.5 a3.13 3.13 0 1 0 6.26 0 a3.13 3.13 0 1 0 -6.26 0zM84.37 337.5 a3.13 3.13 0 1 0 6.26 0 a3.13 3.13 0 1 0 -6.26 0z" fill="black"></path><path d="M484.37 112.5 a3.13 3.13 0 1 0 6.26 0 a3.13 3.13 0 1 0 -6.26 0zM484.37 37.5 a3.13 3.13 0 1 0 6.26 0 a3.13 3.13 0 1 0 -6.26 0z" fill="black"></path><path d="M209.37 462.5 a3.13 3.13 0 1 0 6.26 0 a3.13 3.13 0 1 0 -6.26 0zM109.37 412.5 a3.13 3.13 0 1 0 6.26 0 a3.13 3.13 0 1 0 -6.26 0z" fill="black"></path><path d="M284.37 362.5 a3.13 3.13 0 1 0 6.26 0 a3.13 3.13 0 1 0 -6.26 0zM409.37 362.5 a3.13 3.13 0 1 0 6.26 0 a3.13 3.13 0 1 0 -6.26 0z" fill="black"></path><path d="M159.37 12.5 a3.13 3.13 0 1 0 6.26 0 a3.13 3.13 0 1 0 -6.26 0zM59.37 62.5 a3.13 3.13 0 1 0 6.26 0 a3.13 3.13 0 1 0 -6.26 0z" fill="black"></path><path d="M9.37 212.5 a3.13 3.13 0 1 0 6.26 0 a3.13 3.13 0 1 0 -6.26 0zM9.37 162.5 a3.13 3.13 0 1 0 6.26 0 a3.13 3.13 0 1 0 -6.26 0z" fill="black"></path><path d="M184.37 187.5 a3.13 3.13 0 1 0 6.26 0 a3.13 3.13 0 1 0 -6.26 0zM284.37 212.5 a3.13 3.13 0 1 0 6.26 0 a3.13 3.13 0 1 0 -6.26 0z" fill="black"></path><path d="M234.37 262.5 a3.13 3.13 0 1 0 6.26 0 a3.13 3.13 0 1 0 -6.26 0zM184.37 287.5 a3.13 3.13 0 1 0 6.26 0 a3.13 3.13 0 1 0 -6.26 0z" fill="black"></path><path d="M484.37 412.5 a3.13 3.13 0 1 0 6.26 0 a3.13 3.13 0 1 0 -6.26 0zM409.37 412.5 a3.13 3.13 0 1 0 6.26 0 a3.13 3.13 0 1 0 -6.26 0z" fill="black"></path></mask></defs></svg>